# xmcd
#
# Track frame offsets: 
#        150
#        19141
#        38325
#        57607
#        76213
#        93220
#        111498
#        130589
#        163608
#
# Disc length: 2478 seconds
#
# Revision: 0
# Processed by: cddbd v1.5.2PL0 Copyright (c) Steve Scherf et al.
# Submitted via: ExactAudioCopy v0.99pb4
#
DISCID=6709ac09
DTITLE=Thunderhead - Thunderhead'75
DYEAR=2011
DGENRE=Blues/Rock
TTITLE0=Busted In Georgia
TTITLE1=Roll Up The Hill
TTITLE2=Lay It On the Line
TTITLE3=Make Your Own Good News
TTITLE4=Apathy
TTITLE5=Stop The Madness
TTITLE6=Hit And Run Driver
TTITLE7=Space Saver
TTITLE8=Houma
EXTD=
EXTT0=
EXTT1=
EXTT2=
EXTT3=
EXTT4=
EXTT5=
EXTT6=
EXTT7=
EXTT8=
PLAYORDER=
